<?xml version="1.0" encoding="utf-8"?>
<!-- Generator: Adobe Illustrator 19.1.0, SVG Export Plug-In . SVG Version: 6.00 Build 0)  -->
<svg version="1.1" id="Layer_1" xmlns="http://www.w3.org/2000/svg" xmlns:xlink="http://www.w3.org/1999/xlink" x="0px" y="0px"
	 viewBox="0 0 576 160" style="enable-background:new 0 0 576 160;" xml:space="preserve">
<style type="text/css">
	.st0{fill:#152E54;}
	.st1{fill:#0892CD;}
	.st2{fill:#0D6799;}
	.st3{fill:#231F20;}
	.st4{font-family:'MyriadPro-Regular';}
	.st5{font-size:97.0346px;}
	.st6{font-family:'MyriadPro-Semibold';}
</style>
<g>
	<path class="st0" d="M66.3,6.4C31.7,6.5,3.7,35.5,3.7,71.2c0,18.6,7.9,36.6,21.5,48.8c3.3,3,7,5.7,10.9,7.9
		c1.5,0.9,4.5,3.1,6.2,3.1c2,0,5.7-4.6,6.7-6.4c4.6-8.6,6.1-9.3,7.2-23.3c0.2-2.6,0.1-6.9-0.5-9.5c-1.2-4.6-6.9-7-8.4-11.5
		c-2.2-6.7,5-19.1,11.6-24.6c5.2-4.3,14.2-10.8,20.3-12L59.8,33.5L33.9,45.2L70.9,14l28.9,26.5l-9.9-0.3l-7.1,4.4L81,46.3
		c-1.2,1.2-3.3,5.3-4.6,16.1c-1.1,8.9-0.9,18,5.8,23.8c5.2,4.4,15.4,7.1,19.3,12.7c4.2,6.1,0.4,13.8,3.7,20.3
		c2.3,4.6,3.6,3.9,7.1,0.8c2.7-2.4,5.2-5,7.5-7.9c9.1-11.3,14.4-25.9,14.4-40.6C134.1,35.7,101,6.2,66.3,6.4z"/>
	<g>
		<path class="st1" d="M73.3,49.4c0,0-5.4,4.2-6,5c-1.3,1.8-1.1,4.2,1.3,5.2s4.6-0.3,4.8-2.4C73.5,56.8,73.3,49.4,73.3,49.4z"/>
	</g>
	<g>
		<path class="st1" d="M62.9,58.2c0,0-4.6,5.2-5,6.1c-0.9,2-0.3,4.3,2.3,4.9s4.5-1.2,4.3-3.2C64.4,65.4,62.9,58.2,62.9,58.2z"/>
	</g>
	<g>
		<path class="st1" d="M69.9,65.5c0,0-3.8,5.7-4.1,6.7c-0.6,2.1,0.3,4.3,2.9,4.6c2.6,0.3,4.3-1.7,3.8-3.8
			C72.4,72.4,69.9,65.5,69.9,65.5z"/>
	</g>
	<g>
		<path class="st1" d="M56.3,71.8c0,0-3.2,6.1-3.4,7.1c-0.4,2.2,0.7,4.2,3.4,4.2c2.6,0,4.1-2.2,3.4-4.2
			C59.5,78.4,56.3,71.8,56.3,71.8z"/>
	</g>
	<g>
		<path class="st1" d="M75.8,84c0,0-1.5,6.7-1.4,7.7c0.2,2.2,1.8,3.9,4.4,3.2s3.3-3.2,2.2-4.9C80.6,89.6,75.8,84,75.8,84z"/>
	</g>
	<g>
		<path class="st2" d="M84.7,95.5c0,0-2,4-2,5c0.1,2.2,1.6,4,4.2,3.4c2.6-0.6,3.5-3,2.4-4.8C89.1,98.7,84.7,95.5,84.7,95.5z"/>
	</g>
	<g>
		<path class="st2" d="M66,80c0,0-2.2,3.9-2.3,4.9c0,2.2,1.4,4,4,3.6c2.6-0.4,3.6-2.8,2.7-4.7C70.2,83.3,66,80,66,80z"/>
	</g>
	<g>
		<path class="st2" d="M62.1,103.7c0,0-2.9,3.5-3,4.5c-0.4,2.2,0.7,4.2,3.4,4.2s4.1-2.2,3.4-4.2C65.6,107.7,62.1,103.7,62.1,103.7z"
			/>
	</g>
	<g>
		<circle class="st0" cx="87.2" cy="133.7" r="3.8"/>
	</g>
	<g>
		<path class="st1" d="M61.1,87.2c0,0-2.3,6.5-2.4,7.5c-0.1,2.2,1.3,4.1,3.9,3.7c2.6-0.4,3.7-2.7,2.8-4.6
			C65.2,93.3,61.1,87.2,61.1,87.2z"/>
	</g>
	<g>
		<path class="st2" d="M71.8,94.3c0,0-2.4,3.8-2.5,4.8c-0.2,2.2,1.2,4.1,3.8,3.8c2.6-0.3,3.8-2.6,2.9-4.5
			C75.8,97.8,71.8,94.3,71.8,94.3z"/>
	</g>
	<g>
		<path class="st2" d="M94.9,104.6c0,0-2.5,3.8-2.6,4.8c-0.2,2.2,1.2,4.1,3.8,3.8c2.6-0.3,3.8-2.6,3-4.5
			C98.8,108.2,94.9,104.6,94.9,104.6z"/>
	</g>
	<g>
		<circle class="st0" cx="70.9" cy="145.3" r="3.8"/>
	</g>
	<g>
		<circle class="st0" cx="106.6" cy="141.6" r="3.8"/>
	</g>
	<g>
		<circle class="st0" cx="88.7" cy="144.6" r="3.8"/>
	</g>
	<g>
		<path class="st3" d="M101.4,72.2"/>
	</g>
	<path class="st1" d="M116,25.8C102.5,12.3,84.3,4.6,66.3,4.7C30.8,4.9,2,34.7,2,71.2c0,19.2,8,37.4,22.1,50.1
		c3.4,3.1,7.2,5.8,11.1,8.1c0.3,0.2,0.8,0.5,1.2,0.8c2.3,1.5,4.1,2.6,5.8,2.6c0,0,0,0,0,0c3.5,0,7.6-6.4,8.1-7.3
		c0.7-1.3,1.3-2.4,1.8-3.4c3.3-5.9,4.6-8.3,5.6-20.6c0.2-2.9,0.1-7.3-0.6-10c-0.7-2.8-2.7-4.8-4.7-6.7c-1.6-1.6-3.1-3.1-3.7-4.9
		c-1.9-5.7,4.6-17.4,11-22.8c6-4.9,11.6-8.6,16-10.5c1.1-0.5,2.4-1.5,3.7-2.6L77,42.7l0,0l-17.2-9.2L33.9,45.2L70.9,14l28.9,26.5
		l-9.9-0.3l-6.7,4.1v0l-1.3,0.8l-0.3,0.2l0,0L80.7,46l0,0L78,47.9c-1.2,2.6-2.4,6.9-3.3,14.3c-1,8.3-1.3,18.7,6.4,25.3
		c2.3,1.9,5.3,3.5,8.5,5.1c4.2,2.1,8.5,4.3,10.5,7.3c1.9,2.8,1.9,6.2,1.9,9.7c0,3.5,0,7,1.7,10.5c1,1.9,2.2,3.8,4,4.1
		c2,0.4,3.8-1.2,5.7-2.9c2.8-2.5,5.3-5.2,7.7-8.1c9.4-11.7,14.7-26.9,14.8-41.6C135.8,54.8,128.8,38.5,116,25.8z M118.4,111.1
		c-2.2,2.8-4.6,5.3-7.3,7.7c-0.7,0.6-2.3,2.1-2.8,2.1h0c-0.1,0-0.6-0.2-1.6-2.4c-1.4-2.7-1.4-5.7-1.4-8.9c0-3.9,0-7.9-2.5-11.6
		c-2.5-3.7-7.2-6.1-11.8-8.4c-3-1.5-5.8-3-7.8-4.7C76.8,79.4,77,70.1,78,62.6c1.5-12,3.7-14.7,4.2-15.1l0,0l7.8-5.3l24.8,6l-44.2-38
		L24.1,49.9l17.1-4.1l17.8-5l13.4,3.8c-5.7,2.8-11.4,7.3-14.6,9.9c-6.5,5.4-14.6,18.7-12.1,26.4c0.8,2.6,2.7,4.4,4.5,6.2
		c1.7,1.7,3.3,3.2,3.8,5.2c0.6,2.2,0.7,6.3,0.5,8.9c-0.9,11.6-2.1,13.7-5.2,19.2c-0.6,1-1.2,2.1-1.9,3.4c-1,1.9-4.2,5.4-5.2,5.6
		c-0.8,0-2.9-1.3-4-2.1c-0.5-0.3-1-0.6-1.4-0.9c-3.8-2.2-7.3-4.7-10.6-7.7c-13.3-12-21-29.4-21-47.6c0-34.7,27.3-63,60.9-63.2
		c0.1,0,0.2,0,0.3,0c17.1,0,34.2,7.3,47.1,20.1c12.1,12.1,18.8,27.5,18.8,43.4C132.4,85.5,127.3,100,118.4,111.1z"/>
	<g>
		<path class="st2" d="M60.8,116.4c0,0-3.4,2.9-3.8,3.9c-0.8,2.1,0,4.3,2.5,4.8s4.4-1.4,4.1-3.5C63.6,121,60.8,116.4,60.8,116.4z"/>
	</g>
	<g>
		<path class="st2" d="M72.1,107c0,0-2.4,3.8-2.5,4.8c-0.2,2.2,1.2,4.1,3.8,3.8c2.6-0.3,3.8-2.6,2.9-4.5
			C76.1,110.6,72.1,107,72.1,107z"/>
	</g>
	<g>
		<path class="st2" d="M82.8,106.7c0,0-2.4,3.8-2.5,4.8c-0.2,2.2,1.2,4.1,3.8,3.8c2.6-0.3,3.8-2.6,2.9-4.5
			C86.8,110.3,82.8,106.7,82.8,106.7z"/>
	</g>
	<g>
		<circle class="st0" cx="97.5" cy="120.8" r="3.8"/>
	</g>
	<g>
		<circle class="st0" cx="85.5" cy="122.6" r="3.8"/>
	</g>
	<g>
		<circle class="st0" cx="71.7" cy="123.3" r="3.8"/>
	</g>
	<g>
		<circle class="st0" cx="101.8" cy="130.4" r="3.8"/>
	</g>
	<g>
		<circle class="st0" cx="71.3" cy="134.7" r="3.8"/>
	</g>
	<g>
		<circle class="st0" cx="55.8" cy="132.5" r="3.8"/>
	</g>
	<g>
		<circle class="st0" cx="122.5" cy="133.1" r="3.8"/>
	</g>
</g>
<text transform="matrix(1 0 0 1 140.149 112.1187)"><tspan x="0" y="0" class="st0 st4 st5">H</tspan><tspan x="64.1" y="0" class="st0 st4 st5">y</tspan><tspan x="108.9" y="0" class="st0 st4 st5">d</tspan><tspan x="163.6" y="0" class="st0 st4 st5">r</tspan><tspan x="194.5" y="0" class="st0 st4 st5">o</tspan></text>
<text transform="matrix(1 0 0 1 387.7818 112.1187)"><tspan x="0" y="0" class="st1 st6 st5">C</tspan><tspan x="56.9" y="0" class="st1 st6 st5">lim</tspan></text>
</svg>
