<?xml version="1.0" encoding="utf-8"?>
<!-- Generator: Adobe Illustrator 19.1.0, SVG Export Plug-In . SVG Version: 6.00 Build 0)  -->
<svg version="1.1" id="Layer_1" xmlns="http://www.w3.org/2000/svg" xmlns:xlink="http://www.w3.org/1999/xlink" x="0px" y="0px"
	 viewBox="0 0 541.6 576" style="enable-background:new 0 0 541.6 576;" xml:space="preserve">
<style type="text/css">
	.st0{fill:#152E54;}
	.st1{fill:#0A91CB;}
	.st2{fill:#0D6799;}
	.st3{fill:#221F1F;}
</style>
<g>
	<path class="st0" d="M255.8,9.5c-135.4,0.6-245,114-245,253.8c0,72.8,31,143.2,84.2,191.1c13.1,11.8,27.3,22.1,42.5,30.8
		c5.9,3.4,17.5,12.2,24.3,12.3c8,0.1,22.4-18.1,26.1-25.2c17.9-33.7,23.9-36.4,28.3-91.2c0.8-10.2,0.4-27.1-2.2-37
		c-4.7-18-26.9-27.4-32.7-45c-8.6-26,19.5-74.9,45.3-96.2c20.4-16.9,55.4-42.1,79.4-46.9l-75.7-40.6l-101.1,46.1L273.8,39.5
		l112.9,103.6l-38.7-1l-27.9,17.1l-6.8,6.5c-4.9,4.9-12.8,20.8-18.2,63.1c-4.4,34.8-3.4,70.6,22.8,93c20.2,17.3,60.3,27.8,75.4,49.8
		c16.4,23.9,1.6,54.2,14.6,79.6c9.2,18,14,15.2,27.6,3c10.6-9.4,20.3-19.7,29.2-30.8c35.4-44.3,56.2-101.5,56.3-158.9
		C521.3,124.3,391.9,8.9,255.8,9.5z"/>
	<g>
		<path class="st1" d="M283.4,178c0,0-21.3,16.5-23.6,19.7c-5.1,7.2-4.2,16.3,5.1,20.5s18-1.2,18.9-9.3
			C284.1,206.7,283.4,178,283.4,178z"/>
	</g>
	<g>
		<path class="st1" d="M242.6,212.3c0,0-17.8,20.2-19.5,23.8c-3.6,8-1.1,16.8,8.9,19.2c10,2.4,17.4-4.5,16.8-12.6
			C248.7,240.4,242.6,212.3,242.6,212.3z"/>
	</g>
	<g>
		<path class="st1" d="M269.9,240.9c0,0-15,22.4-16.2,26.2c-2.5,8.4,1.2,16.8,11.4,17.8c10.2,1.1,16.7-6.8,15-14.8
			C279.7,267.9,269.9,240.9,269.9,240.9z"/>
	</g>
	<g>
		<path class="st1" d="M216.7,265.4c0,0-12.5,23.8-13.3,27.8c-1.6,8.6,2.9,16.5,13.2,16.5c10.3,0,15.9-8.5,13.4-16.3
			C229.3,291.2,216.7,265.4,216.7,265.4z"/>
	</g>
	<g>
		<path class="st1" d="M293,313.5c0,0-5.8,26.3-5.5,30.3c0.7,8.7,7.2,15.2,17.1,12.5c9.9-2.7,13-12.4,8.6-19.2
			C312,335.1,293,313.5,293,313.5z"/>
	</g>
	<g>
		<path class="st2" d="M328,358.4c0,0-7.9,15.7-7.8,19.7c0.3,8.8,6.4,15.5,16.5,13.3s13.6-11.8,9.5-18.8
			C345,370.7,328,358.4,328,358.4z"/>
	</g>
	<g>
		<path class="st2" d="M254.7,297.5c0,0-8.7,15.3-8.8,19.3c-0.2,8.8,5.6,15.8,15.8,14.1c10.1-1.7,14.2-11,10.5-18.3
			C271.1,310.6,254.7,297.5,254.7,297.5z"/>
	</g>
	<g>
		<path class="st2" d="M239.3,390.3c0,0-11.2,13.6-11.9,17.6c-1.6,8.6,2.9,16.5,13.2,16.5c10.3,0,15.9-8.5,13.4-16.3
			C253.3,405.9,239.3,390.3,239.3,390.3z"/>
	</g>
	<g>
		<circle class="st0" cx="337.8" cy="507.8" r="14.9"/>
	</g>
	<g>
		<path class="st1" d="M235.6,325.9c0,0-9.1,25.3-9.3,29.3c-0.4,8.8,5.2,16,15.4,14.6s14.5-10.6,11-18
			C251.7,349.7,235.6,325.9,235.6,325.9z"/>
	</g>
	<g>
		<path class="st2" d="M277.3,353.5c0,0-9.6,14.8-9.9,18.8c-0.7,8.7,4.8,16.1,15,15c10.2-1.2,14.8-10.2,11.4-17.7
			C292.9,367.5,277.3,353.5,277.3,353.5z"/>
	</g>
	<g>
		<path class="st2" d="M367.7,393.9c0,0-9.7,14.7-10,18.7c-0.7,8.7,4.6,16.1,14.9,15.1c10.2-1.1,14.9-10.1,11.6-17.6
			C383.2,408,367.7,393.9,367.7,393.9z"/>
	</g>
	<g>
		<circle class="st0" cx="274.1" cy="553.2" r="14.9"/>
	</g>
	<g>
		<circle class="st0" cx="413.6" cy="538.6" r="14.9"/>
	</g>
	<g>
		<circle class="st0" cx="343.5" cy="550.4" r="14.9"/>
	</g>
	<g>
		<path class="st3" d="M393.4,267.3"/>
	</g>
	<path class="st1" d="M450.3,85.5C397.4,32.8,326.2,2.5,255.8,3C117.2,3.6,4.3,120.4,4.3,263.3c0,75.1,31.5,146.5,86.3,196
		c13.4,12.1,28.1,22.8,43.6,31.6c1.3,0.8,3,1.8,4.8,3c8.9,5.7,16.2,10.1,22.8,10.2c0,0,0.1,0,0.1,0c13.5,0,29.9-24.9,31.9-28.7
		c2.6-5,5-9.3,7.2-13.1c12.8-23,18-32.6,21.8-80.6c0.9-11.2,0.4-28.8-2.3-39.2c-2.9-11-10.7-18.8-18.3-26.3
		c-6.3-6.2-12.2-12.1-14.6-19.2c-7.3-22.1,18.1-68.2,43.2-89.1c23.3-19.3,45.5-33.6,62.5-40.9c4.3-1.8,9.3-5.8,14.5-10.1l-10.1-5.4
		l0,0l-67.2-36l-101.1,46.1L273.8,39.5l112.9,103.6l-38.7-1l-26.2,16v0l-4.9,3l-1.1,0.8l0,0l-3.6,2.6l0,0l-10.5,7.5
		c-4.6,10.1-9.4,27.1-13,55.9c-4.1,32.5-4.9,73.2,25,98.8c8.9,7.6,20.7,13.6,33.1,20c16.3,8.3,33.2,16.9,41.2,28.6
		c7.5,11,7.5,24.1,7.4,37.9c0,13.6-0.1,27.6,6.7,41c3.9,7.6,8.4,14.8,15.6,16.2c8,1.5,14.8-4.7,22.2-11.2
		c10.8-9.6,20.9-20.3,30-31.6c36.6-45.8,57.7-105.2,57.8-163C527.8,198.9,500.3,135.3,450.3,85.5z M459.7,419.3
		c-8.6,10.8-18.2,20.9-28.4,30c-2.7,2.4-9.1,8.1-11,8.1h0c-0.2-0.1-2.2-0.9-6.4-9.2c-5.4-10.6-5.3-22.4-5.3-35
		c0.1-15.3,0.1-31-9.7-45.4c-9.9-14.4-28.2-23.8-46-32.9c-11.8-6-22.9-11.7-30.6-18.3c-25.2-21.6-24.2-58-20.5-87.2
		c5.9-46.8,14.6-57.6,16.3-59.3l0,0l30.6-20.9l97,23.6L272.4,24.5L90.8,179.9l66.9-16.2l69.5-19.6l52.4,14.9
		c-22.1,11.1-44.8,28.5-57.2,38.9c-25.4,21.1-57.3,73-47.3,103.3c3.3,10.1,10.7,17.3,17.8,24.4c6.6,6.5,12.9,12.7,14.8,20.2
		c2.3,8.7,2.8,24.6,2,34.9c-3.6,45.2-8.1,53.4-20.2,75.3c-2.2,3.9-4.6,8.3-7.3,13.4c-4,7.6-16.3,21.2-20.3,21.7
		c-3.3,0-11.4-5.3-15.8-8.1c-2-1.3-3.9-2.5-5.4-3.3c-14.7-8.4-28.6-18.5-41.4-30c-52.1-47-82-114.9-82-186.3
		c0-135.7,107-246.7,238.5-247.3c0.4,0,0.7,0,1.1,0c66.9,0,133.9,28.6,184.1,78.7c47.5,47.4,73.6,107.7,73.5,169.8
		C514.5,319.4,494.5,375.8,459.7,419.3z"/>
	<g>
		<path class="st2" d="M234.5,440c0,0-13.5,11.4-14.9,15.1c-3.2,8.2-0.2,16.8,10,18.7c10.1,1.9,17.1-5.5,16.1-13.6
			C245.3,457.9,234.5,440,234.5,440z"/>
	</g>
	<g>
		<path class="st2" d="M278.7,403.5c0,0-9.6,14.8-9.9,18.8c-0.7,8.7,4.8,16.1,15,15c10.2-1.2,14.8-10.2,11.4-17.7
			C294.3,417.4,278.7,403.5,278.7,403.5z"/>
	</g>
	<g>
		<path class="st2" d="M320.3,402.1c0,0-9.6,14.8-9.9,18.8c-0.7,8.7,4.8,16.1,15,15c10.2-1.2,14.8-10.2,11.4-17.7
			C335.9,416,320.3,402.1,320.3,402.1z"/>
	</g>
	<g>
		<circle class="st0" cx="378.2" cy="457.4" r="14.9"/>
	</g>
	<g>
		<circle class="st0" cx="331" cy="464.4" r="14.9"/>
	</g>
	<g>
		<circle class="st0" cx="276.9" cy="467.1" r="14.9"/>
	</g>
	<g>
		<circle class="st0" cx="394.8" cy="494.9" r="14.9"/>
	</g>
	<g>
		<circle class="st0" cx="275.5" cy="511.6" r="14.9"/>
	</g>
	<g>
		<circle class="st0" cx="214.8" cy="503.2" r="14.9"/>
	</g>
	<g>
		<circle class="st0" cx="476" cy="505.3" r="14.9"/>
	</g>
</g>
</svg>
