<?xml version="1.0" encoding="utf-8"?>
<!-- Generator: Adobe Illustrator 19.1.0, SVG Export Plug-In . SVG Version: 6.00 Build 0)  -->
<svg version="1.1" id="Layer_1" xmlns="http://www.w3.org/2000/svg" xmlns:xlink="http://www.w3.org/1999/xlink" x="0px" y="0px"
	 viewBox="0 0 576 160" style="enable-background:new 0 0 576 160;" xml:space="preserve">
<style type="text/css">
	.st0{fill:#FFFFFF;}
	.st1{font-family:'MyriadPro-Regular';}
	.st2{font-size:96.8384px;}
	.st3{font-family:'MyriadPro-Semibold';}
</style>
<g>
	<g>
		<g>
			<path class="st0" d="M71.5,49.5c0,0-5.4,4.2-6,5c-1.3,1.8-1.1,4.1,1.3,5.2s4.6-0.3,4.8-2.4C71.7,56.8,71.5,49.5,71.5,49.5z"/>
		</g>
		<g>
			<path class="st0" d="M61.1,58.2c0,0-4.6,5.1-5,6.1c-0.9,2-0.3,4.3,2.3,4.9c2.5,0.6,4.4-1.2,4.3-3.2
				C62.7,65.4,61.1,58.2,61.1,58.2z"/>
		</g>
		<g>
			<path class="st0" d="M68.1,65.5c0,0-3.8,5.7-4.1,6.7c-0.6,2.1,0.3,4.3,2.9,4.6c2.6,0.3,4.3-1.7,3.8-3.8
				C70.6,72.4,68.1,65.5,68.1,65.5z"/>
		</g>
		<g>
			<path class="st0" d="M54.5,71.8c0,0-3.2,6.1-3.4,7.1c-0.4,2.2,0.7,4.2,3.4,4.2c2.6,0,4-2.2,3.4-4.1
				C57.7,78.3,54.5,71.8,54.5,71.8z"/>
		</g>
		<g>
			<path class="st0" d="M74,84c0,0-1.5,6.7-1.4,7.7c0.2,2.2,1.8,3.9,4.4,3.2c2.5-0.7,3.3-3.2,2.2-4.9C78.8,89.5,74,84,74,84z"/>
		</g>
		<g>
			<path class="st0" d="M82.9,95.5c0,0-2,4-2,5c0.1,2.2,1.6,4,4.2,3.4c2.6-0.6,3.5-3,2.4-4.8C87.2,98.6,82.9,95.5,82.9,95.5z"/>
		</g>
		<g>
			<path class="st0" d="M64.2,80c0,0-2.2,3.9-2.2,4.9c0,2.2,1.4,4,4,3.6c2.6-0.4,3.6-2.8,2.7-4.7C68.4,83.3,64.2,80,64.2,80z"/>
		</g>
		<g>
			<path class="st0" d="M60.3,103.6c0,0-2.8,3.5-3,4.5c-0.4,2.2,0.7,4.2,3.4,4.2c2.6,0,4-2.2,3.4-4.1
				C63.8,107.6,60.3,103.6,60.3,103.6z"/>
		</g>
		<g>
			<circle class="st0" cx="85.4" cy="133.6" r="3.8"/>
		</g>
		<g>
			<path class="st0" d="M59.3,87.2c0,0-2.3,6.5-2.4,7.5c-0.1,2.2,1.3,4.1,3.9,3.7c2.6-0.4,3.7-2.7,2.8-4.6
				C63.4,93.3,59.3,87.2,59.3,87.2z"/>
		</g>
		<g>
			<path class="st0" d="M70,94.2c0,0-2.4,3.8-2.5,4.8c-0.2,2.2,1.2,4.1,3.8,3.8s3.8-2.6,2.9-4.5C73.9,97.8,70,94.2,70,94.2z"/>
		</g>
		<g>
			<path class="st0" d="M93,104.5c0,0-2.5,3.8-2.5,4.8c-0.2,2.2,1.2,4.1,3.8,3.8c2.6-0.3,3.8-2.6,3-4.5C97,108.1,93,104.5,93,104.5z
				"/>
		</g>
		<g>
			<circle class="st0" cx="69.1" cy="145.2" r="3.8"/>
		</g>
		<g>
			<circle class="st0" cx="104.7" cy="141.4" r="3.8"/>
		</g>
		<g>
			<circle class="st0" cx="86.8" cy="144.5" r="3.8"/>
		</g>
		<g>
			<path class="st0" d="M99.6,72.3"/>
		</g>
		<g>
			<path class="st0" d="M59,116.3c0,0-3.4,2.9-3.8,3.9c-0.8,2.1,0,4.3,2.5,4.8c2.6,0.5,4.4-1.4,4.1-3.5
				C61.8,120.9,59,116.3,59,116.3z"/>
		</g>
		<g>
			<path class="st0" d="M70.3,107c0,0-2.4,3.8-2.5,4.8c-0.2,2.2,1.2,4.1,3.8,3.8s3.8-2.6,2.9-4.5C74.3,110.5,70.3,107,70.3,107z"/>
		</g>
		<g>
			<path class="st0" d="M80.9,106.6c0,0-2.4,3.8-2.5,4.8c-0.2,2.2,1.2,4.1,3.8,3.8c2.6-0.3,3.8-2.6,2.9-4.5
				C84.9,110.2,80.9,106.6,80.9,106.6z"/>
		</g>
		<g>
			<circle class="st0" cx="95.7" cy="120.7" r="3.8"/>
		</g>
		<g>
			<circle class="st0" cx="83.7" cy="122.5" r="3.8"/>
		</g>
		<g>
			<circle class="st0" cx="69.8" cy="123.2" r="3.8"/>
		</g>
		<g>
			<circle class="st0" cx="99.9" cy="130.3" r="3.8"/>
		</g>
		<g>
			<circle class="st0" cx="69.5" cy="134.5" r="3.8"/>
		</g>
		<g>
			<circle class="st0" cx="54" cy="132.4" r="3.8"/>
		</g>
		<g>
			<circle class="st0" cx="120.6" cy="133" r="3.8"/>
		</g>
		<path class="st0" d="M104.8,118.4c1.1,2.1,1.6,2.3,1.6,2.4h0c0.5,0,2.1-1.5,2.8-2.1c2.6-2.3,5.1-4.9,7.3-7.7
			c8.9-11.1,14-25.5,14-39.5c0-15.8-6.6-31.2-18.7-43.3C98.9,15.5,81.8,8.2,64.8,8.2c-0.1,0-0.2,0-0.3,0C31,8.3,3.7,36.6,3.7,71.2
			c0,18.2,7.6,35.5,20.9,47.5c3.2,2.9,6.8,5.5,10.6,7.7c0.4,0.2,0.9,0.5,1.4,0.9c1.1,0.7,3.2,2.1,4,2.1c1-0.1,4.1-3.6,5.2-5.5
			c0.7-1.3,1.3-2.4,1.9-3.4c3.1-5.6,4.3-7.7,5.2-19.2c0.2-2.6,0.1-6.7-0.5-8.9c-0.5-1.9-2.1-3.5-3.8-5.2c-1.8-1.8-3.7-3.6-4.5-6.2
			c-2.5-7.7,5.6-21,12.1-26.3c3.2-2.6,9-7.1,14.6-9.9l-13.4-3.8l-17.7,5L22.4,50l46.3-39.6l44.2,37.9l-24.7-6l-7.8,5.3l0,0
			c-0.4,0.4-2.7,3.2-4.2,15.1c-0.9,7.5-1.2,16.7,5.2,22.3c2,1.7,4.8,3.1,7.8,4.7c4.5,2.3,9.2,4.7,11.7,8.4c2.5,3.7,2.5,7.7,2.5,11.6
			C103.4,112.7,103.4,115.7,104.8,118.4z"/>
	</g>
	<text transform="matrix(1 0 0 1 138.2043 112.0415)"><tspan x="0" y="0" class="st0 st1 st2">H</tspan><tspan x="64" y="0" class="st0 st1 st2">y</tspan><tspan x="108.7" y="0" class="st0 st1 st2">d</tspan><tspan x="163.3" y="0" class="st0 st1 st2">r</tspan><tspan x="194.1" y="0" class="st0 st1 st2">o</tspan></text>
	<text transform="matrix(1 0 0 1 385.3351 112.0415)"><tspan x="0" y="0" class="st0 st3 st2">C</tspan><tspan x="56.7" y="0" class="st0 st3 st2">lim</tspan></text>
</g>
</svg>
