<?xml version="1.0" encoding="utf-8"?>
<!-- Generator: Adobe Illustrator 19.1.0, SVG Export Plug-In . SVG Version: 6.00 Build 0)  -->
<svg version="1.1" id="Layer_1" xmlns="http://www.w3.org/2000/svg" xmlns:xlink="http://www.w3.org/1999/xlink" x="0px" y="0px"
	 viewBox="0 0 525 576" style="enable-background:new 0 0 525 576;" xml:space="preserve">
<style type="text/css">
	.st0{fill:#FFFFFF;}
</style>
<g>
	<g>
		<path class="st0" d="M276.5,170.8c0,0-21.4,16.6-23.7,19.8c-5.1,7.2-4.2,16.3,5.2,20.6c9.4,4.3,18.1-1.2,19-9.3
			C277.2,199.7,276.5,170.8,276.5,170.8z"/>
	</g>
	<g>
		<path class="st0" d="M235.5,205.3c0,0-17.9,20.3-19.6,23.9c-3.7,8-1.1,16.9,9,19.3c10.1,2.5,17.5-4.5,16.9-12.7
			C241.6,233.5,235.5,205.3,235.5,205.3z"/>
	</g>
	<g>
		<path class="st0" d="M263,234.1c0,0-15.1,22.5-16.2,26.3c-2.6,8.4,1.2,16.8,11.4,17.9s16.8-6.8,15.1-14.8
			C272.8,261.2,263,234.1,263,234.1z"/>
	</g>
	<g>
		<path class="st0" d="M209.5,258.7c0,0-12.6,24-13.4,27.9c-1.6,8.7,2.9,16.6,13.3,16.6s15.9-8.6,13.4-16.4
			C222.1,284.6,209.5,258.7,209.5,258.7z"/>
	</g>
	<g>
		<path class="st0" d="M286.2,307c0,0-5.8,26.4-5.5,30.4c0.7,8.8,7.2,15.3,17.2,12.5c10-2.7,13.1-12.5,8.6-19.3
			C305.2,328.7,286.2,307,286.2,307z"/>
	</g>
	<g>
		<path class="st0" d="M321.3,352.2c0,0-8,15.8-7.9,19.8c0.3,8.8,6.5,15.6,16.6,13.3c10.1-2.2,13.7-11.8,9.6-18.9
			C338.4,364.5,321.3,352.2,321.3,352.2z"/>
	</g>
	<g>
		<path class="st0" d="M247.7,291c0,0-8.8,15.4-8.9,19.4c-0.2,8.8,5.7,15.9,15.9,14.2c10.2-1.7,14.3-11.1,10.5-18.4
			C264.1,304.1,247.7,291,247.7,291z"/>
	</g>
	<g>
		<path class="st0" d="M232.2,384.3c0,0-11.2,13.7-12,17.7c-1.6,8.7,2.9,16.6,13.3,16.6c10.3,0,15.9-8.6,13.4-16.4
			C246.2,400,232.2,384.3,232.2,384.3z"/>
	</g>
	<g>
		<circle class="st0" cx="331.2" cy="502.3" r="14.9"/>
	</g>
	<g>
		<path class="st0" d="M228.5,319.5c0,0-9.2,25.5-9.4,29.5c-0.4,8.8,5.2,16.1,15.5,14.6s14.6-10.7,11-18.1
			C244.6,343.4,228.5,319.5,228.5,319.5z"/>
	</g>
	<g>
		<path class="st0" d="M270.4,347.3c0,0-9.6,14.9-9.9,18.9c-0.7,8.8,4.8,16.2,15.1,15c10.3-1.2,14.9-10.3,11.5-17.8
			C286.1,361.3,270.4,347.3,270.4,347.3z"/>
	</g>
	<g>
		<path class="st0" d="M361.3,387.9c0,0-9.7,14.8-10,18.8c-0.7,8.8,4.7,16.2,15,15.1s14.9-10.2,11.6-17.7
			C376.9,402,361.3,387.9,361.3,387.9z"/>
	</g>
	<g>
		<circle class="st0" cx="267.2" cy="548" r="14.9"/>
	</g>
	<g>
		<circle class="st0" cx="407.4" cy="533.4" r="14.9"/>
	</g>
	<g>
		<circle class="st0" cx="336.9" cy="545.2" r="14.9"/>
	</g>
	<g>
		<path class="st0" d="M387.2,260.6"/>
	</g>
	<g>
		<path class="st0" d="M227.4,434.2c0,0-13.5,11.4-15,15.2c-3.2,8.2-0.2,16.9,10,18.8s17.2-5.5,16.2-13.6
			C238.3,452.2,227.4,434.2,227.4,434.2z"/>
	</g>
	<g>
		<path class="st0" d="M271.8,397.5c0,0-9.6,14.9-9.9,18.9c-0.7,8.8,4.8,16.2,15.1,15c10.3-1.2,14.9-10.3,11.5-17.8
			C287.5,411.5,271.8,397.5,271.8,397.5z"/>
	</g>
	<g>
		<path class="st0" d="M313.7,396.1c0,0-9.6,14.9-9.9,18.9c-0.7,8.8,4.8,16.2,15.1,15c10.3-1.2,14.9-10.3,11.5-17.8
			C329.4,410.1,313.7,396.1,313.7,396.1z"/>
	</g>
	<g>
		<circle class="st0" cx="371.8" cy="451.7" r="14.9"/>
	</g>
	<g>
		<circle class="st0" cx="324.4" cy="458.7" r="14.9"/>
	</g>
	<g>
		<circle class="st0" cx="270" cy="461.5" r="14.9"/>
	</g>
	<g>
		<circle class="st0" cx="388.6" cy="489.4" r="14.9"/>
	</g>
	<g>
		<circle class="st0" cx="268.6" cy="506.2" r="14.9"/>
	</g>
	<g>
		<circle class="st0" cx="207.6" cy="497.8" r="14.9"/>
	</g>
	<g>
		<circle class="st0" cx="470.2" cy="499.9" r="14.9"/>
	</g>
	<path class="st0" d="M407.6,442.5c4.3,8.4,6.2,9.2,6.4,9.3h0c1.9,0,8.3-5.7,11.1-8.2c10.3-9.2,20-19.4,28.6-30.2
		c35-43.8,55.1-100.5,55.2-155.6c0.1-62.4-26.1-123.1-73.9-170.7C384.6,36.8,317.2,8.1,249.9,8.1c-0.4,0-0.7,0-1.1,0
		C116.7,8.7,9.1,120.2,9.1,256.6c0,71.8,30,140,82.4,187.3c12.8,11.5,26.8,21.7,41.6,30.2c1.5,0.9,3.4,2,5.4,3.4
		c4.4,2.8,12.6,8.1,15.9,8.1c4-0.5,16.3-14.2,20.4-21.9c2.7-5.1,5.1-9.5,7.3-13.4c12.2-22,16.8-30.2,20.3-75.7
		c0.8-10.3,0.3-26.3-2-35c-2-7.6-8.2-13.8-14.9-20.4c-7.2-7.1-14.6-14.4-17.9-24.5c-10-30.4,22-82.6,47.5-103.8
		c12.5-10.4,35.3-27.9,57.5-39.1l-52.7-15l-69.9,19.7l-67.3,16.2L265.4,16.5l174,149.3L342,142l-30.8,21l0,0
		c-1.7,1.7-10.5,12.5-16.4,59.6c-3.7,29.4-4.7,66,20.7,87.7c7.7,6.6,18.9,12.3,30.7,18.4c17.9,9.1,36.3,18.6,46.3,33
		c9.9,14.4,9.8,30.3,9.8,45.6C402.2,420,402.2,431.9,407.6,442.5z"/>
</g>
</svg>
